<svg xmlns="http://www.w3.org/2000/svg" viewBox="0 0 252.46 252.46"><defs><style>.cls-1{fill:none;stroke:#54545a;stroke-linecap:round;stroke-miterlimit:10;stroke-width:2.5px;}.cls-2{fill:#54545a;}</style></defs><g id="Layer_2" data-name="Layer 2"><g id="Layer_1-2" data-name="Layer 1"><path class="cls-1" d="M240.3,75.07a125,125,0,1,1-53.68-58.29"/><path class="cls-2" d="M237.7,76.35a2.82,2.82,0,1,1,3.7,1.48A2.82,2.82,0,0,1,237.7,76.35Z"/><polygon class="cls-1" points="181.54 111.72 150.48 117.01 148.72 85.55 175.81 60.99 199.45 79.83 181.54 111.72"/><line class="cls-1" x1="169.05" y1="93.71" x2="150.75" y2="116.67"/><line class="cls-1" x1="167.39" y1="91.77" x2="171.32" y2="94.9"/><rect class="cls-1" x="182.52" y="48.29" width="29.95" height="19.5" transform="translate(79.24 -110.45) rotate(38.56)"/><line class="cls-1" x1="177.52" y1="122.02" x2="177.52" y2="224.04"/><polyline class="cls-1" points="34.48 188.04 34.48 75.31 145.52 75.31"/><line class="cls-1" x1="56.88" y1="118.22" x2="125.12" y2="118.22"/><line class="cls-1" x1="56.88" y1="146.71" x2="155.12" y2="146.71"/><line class="cls-1" x1="55.03" y1="175.21" x2="153.26" y2="175.21"/><line class="cls-1" x1="55.03" y1="203.71" x2="153.26" y2="203.71"/></g></g></svg>