<svg xmlns="http://www.w3.org/2000/svg" viewBox="0 0 252.47 252.47"><defs><style>.cls-1,.cls-3,.cls-4,.cls-5{fill:none;stroke-linecap:round;stroke-width:2.5px;}.cls-1,.cls-4{stroke:#545459;}.cls-1,.cls-3,.cls-5{stroke-linejoin:round;}.cls-2{fill:#545459;}.cls-3{stroke:#55565b;}.cls-4{stroke-miterlimit:10;}.cls-5{stroke:#54545a;}</style></defs><g id="Layer_2" data-name="Layer 2"><g id="Layer_1-2" data-name="Layer 1"><path class="cls-1" d="M238.37,71a125,125,0,1,1-55.76-56.3"/><path class="cls-2" d="M235.82,72.33a2.82,2.82,0,1,1,3.75,1.34A2.82,2.82,0,0,1,235.82,72.33Z"/><path class="cls-3" d="M118,136.82c-1.42,13.62-14.31,23.58-28.8,22.25S64.07,145.62,65.49,132s13.29-13.79,27.77-12.46S119.36,123.2,118,136.82Z"/><path class="cls-3" d="M131,136.82c1.42,13.62,14.31,23.58,28.8,22.25s25.08-13.45,23.66-27.07-13.29-13.79-27.77-12.46S129.58,123.2,131,136.82Z"/><path class="cls-3" d="M117.21,129.65q6.93-4.66,13.87,0"/><line class="cls-3" x1="66.97" y1="142.94" x2="98.41" y2="124.42"/><line class="cls-3" x1="75.34" y1="146.12" x2="111.79" y2="123.7"/><line class="cls-3" x1="132.41" y1="140.58" x2="163.85" y2="122.06"/><line class="cls-3" x1="140.78" y1="143.76" x2="177.24" y2="121.34"/><path class="cls-1" d="M69.14,148.1c2.12,21.44,14.66,37.49,30.05,49.26,4.76,3.64,5.38,21.55,5,31.81"/><path class="cls-1" d="M77.87,92.7C71.93,99.53,67.64,103.25,67,123.23c-.11,3.24-1.15,2.68-1,5.84"/><path class="cls-1" d="M183.37,131.32c.51-13.33-2.78-24.19-7.84-37.07C170,80.09,162.35,76.77,149.61,66.93c-6.56-5.06-7,25.77-79.54,37"/><path class="cls-1" d="M147.6,202.36c15.57-12.39,26.58-30.23,32-49,.26-.91.8-4.39,1-5.3"/><path class="cls-1" d="M208.87,196.11c1.6-5-9.47-62.16-12.2-85.94-3.5-30.5-11.25-50.24-35.82-70.44a37.25,37.25,0,0,0-6.8-4.46c-18.68-9.4-38.7-10.27-61.4.73C71.88,48,62.13,59.86,58.37,81.56c-2.69,15.53-8.27,90.6-14.92,112"/><path class="cls-1" d="M147.85,229.5c-.59-10.66.35-14.43,1.36-23.85.16-1.57,1-5.33-.52-4.17-14.7,10.82-27.89,11.15-41.28,3"/><path class="cls-1" d="M66.87,126.92c-12.38-3.26-11.78,9.65-5.59,17.89,1.87,2.5,5.53,5.35,7.86,7.52"/><path class="cls-1" d="M182.8,124.48c12.36-3.32,11.82,9.6,5.68,17.86-1.86,2.51-4.88,4.79-7.2,7"/><path class="cls-4" d="M76.34,116.44a28.55,28.55,0,0,1,18.43-4.61A32.18,32.18,0,0,1,112.41,119"/><path class="cls-4" d="M173.09,115.35a28.52,28.52,0,0,0-18.61-3.84,32.06,32.06,0,0,0-17.31,7.87"/><polyline class="cls-5" points="117.81 155.46 124.95 157.13 132.13 155.46"/><path class="cls-5" d="M142.6,177.31l-8.86,1c-1.08.37-2.49.91-3.85,1.51h0a15.54,15.54,0,0,1-9.88,0l-.07-.06c-1.09-.53-2.5-1-3.82-1.48l-8.78-1,6.89,7.15a16.59,16.59,0,0,0,21.48,0Z"/><path class="cls-5" d="M107.34,177.31l9.77-4.88a2.84,2.84,0,0,1,3.11.14l2.55,1.9a3.77,3.77,0,0,0,4.41,0l2.55-1.9a2.83,2.83,0,0,1,3.11-.14l9.76,4.88"/></g></g></svg>