<svg xmlns="http://www.w3.org/2000/svg" viewBox="0 0 252.46 252.46"><defs><style>.cls-1,.cls-3{fill:none;stroke:#54545a;stroke-linecap:round;stroke-width:2.5px;}.cls-1{stroke-miterlimit:10;}.cls-2{fill:#54545a;}.cls-3{stroke-linejoin:round;}</style></defs><g id="Layer_2" data-name="Layer 2"><g id="Layer_1-2" data-name="Layer 1"><path class="cls-1" d="M240.3,75.07a125,125,0,1,1-53.68-58.29"/><path class="cls-2" d="M237.7,76.35a2.82,2.82,0,1,1,3.7,1.48A2.82,2.82,0,0,1,237.7,76.35Z"/><path class="cls-3" d="M106.23,186.68c-5.6-21.86-28.31-36.3-28.31-55.84a48.25,48.25,0,1,1,96.5,0c0,19.54-26.54,38.81-28.31,55.84"/><rect class="cls-3" x="105.8" y="194.34" width="40.75" height="9.08" rx="2.38"/><rect class="cls-3" x="105.8" y="206.29" width="40.75" height="9.08" rx="2.38"/><rect class="cls-3" x="115.98" y="218.23" width="20.37" height="9.08" rx="2.38"/><line class="cls-3" x1="119.14" y1="186.68" x2="119.14" y2="152.56"/><line class="cls-3" x1="133.2" y1="186.68" x2="133.2" y2="152.56"/><line class="cls-3" x1="126.17" y1="63.33" x2="126.17" y2="27.5"/><line class="cls-3" x1="154.51" y1="71.87" x2="172.42" y2="40.83"/><line class="cls-3" x1="174.79" y1="93.43" x2="205.81" y2="75.49"/><line class="cls-3" x1="98.46" y1="71.87" x2="80.56" y2="40.83"/><line class="cls-3" x1="78.18" y1="93.43" x2="47.16" y2="75.49"/></g></g></svg>