<svg width="171" height="10" viewBox="0 0 171 10" xmlns="http://www.w3.org/2000/svg"><title>FULL-LOGO@2X</title><path d="M168.447 1.744h-6.576v2.154h6.26c.96 0 1.616.158 1.972.482.359.323.534.951.534 1.88v1.377c0 .931-.175 1.558-.531 1.879-.359.325-1.013.485-1.97.485h-6.186c-.957 0-1.61-.16-1.967-.485-.355-.321-.532-.948-.532-1.879v-.272l2.052-.426v1.182h7.08V5.835h-6.246c-.956 0-1.61-.164-1.958-.487-.351-.32-.522-.949-.522-1.88V2.367c0-.931.17-1.558.522-1.881.347-.322 1.002-.484 1.958-.484h5.683c.919 0 1.56.154 1.928.464.37.31.555.885.555 1.726v.214l-2.056.483V1.744zm-22.694 6.377h3.005c1.539 0 2.643-.225 3.317-.678.737-.49 1.104-1.336 1.104-2.54 0-2.08-1.098-3.12-3.295-3.12h-4.13v6.338zm-2.33 1.88v-10h6.44c1.85 0 3.266.432 4.245 1.296.985.866 1.478 2.082 1.478 3.645 0 .996-.227 1.902-.679 2.715-.493.852-1.179 1.466-2.056 1.84-.8.337-1.999.504-3.59.504h-5.838zm-13.652 0v-10h2.325v8.12h7.508V10h-9.833zm-14.59 0v-10h10.24v1.704h-7.912v2.23h4.615V5.64h-4.615v2.48h8.007v1.881H115.18zm-7-10h2.329v10h-2.328v-10zm-13.688 10v-10h10.123v1.743H96.82V4.38h4.207v1.823H96.82V10h-2.327zM86.1.143v4.368h4.27v1.125H86.1v4.365h-1.14V5.636h-4.27V4.511h4.27V.143h1.14zm-21.913 9.858v-10h1.59l7.04 5.892c.503.426.884.788 1.143 1.085-.064-.93-.096-1.505-.096-1.725V.001h2.095v10h-1.591l-7.35-6.182a6.9 6.9 0 0 1-.834-.814c.064.645.096 1.175.096 1.588v5.408h-2.093zm-12.73-3.993h4.383L53.689 1.94l-2.23 4.068zM46.98 10l5.662-10h2.25l5.74 10h-2.619l-1.202-2.188H50.47L49.306 10H46.98zM34.916 8.12h3.007c1.537 0 2.643-.225 3.314-.678.737-.49 1.106-1.336 1.106-2.54 0-2.08-1.099-3.12-3.295-3.12h-4.132V8.12zM32.59 10V0h6.437c1.849 0 3.265.432 4.247 1.296.982.866 1.474 2.082 1.474 3.645 0 .996-.225 1.902-.678 2.715-.493.852-1.177 1.466-2.058 1.84-.8.337-1.996.504-3.586.504H32.59zM17.857 8.12h7.68V1.784h-7.68V8.12zM15.53 2.366c0-.931.175-1.558.525-1.881.349-.322 1-.484 1.957-.484h7.37c.955 0 1.609.162 1.958.484.35.323.524.95.524 1.88v5.272c0 .931-.175 1.558-.524 1.879-.35.325-1.003.485-1.959.485h-7.369c-.956 0-1.608-.16-1.957-.485-.35-.321-.525-.948-.525-1.879V2.366zm-7.72-.661H2.576v2.812h5.236c.36 0 .613-.04.757-.12.193-.116.29-.344.29-.682v-1.21c0-.338-.097-.564-.29-.683-.144-.078-.396-.117-.757-.117zM.287 10V0h8.572c1.499 0 2.25.646 2.25 1.939v2.343c0 1.294-.751 1.939-2.25 1.939h-1.32l4.617 3.78H8.82l-4.034-3.78h-2.21v3.78H.285z" fill-rule="evenodd"/></svg>