<svg xmlns="http://www.w3.org/2000/svg" viewBox="0 0 252.47 252.47"><defs><style>.cls-1,.cls-3{fill:none;stroke:#54545a;stroke-linecap:round;stroke-width:2.5px;}.cls-1{stroke-miterlimit:10;}.cls-2{fill:#54545a;}.cls-3{stroke-linejoin:round;}</style></defs><g id="Layer_2" data-name="Layer 2"><g id="Layer_1-2" data-name="Layer 1"><path class="cls-1" d="M94.47,5.33a125,125,0,1,1-66.3,43.38"/><path class="cls-2" d="M95.3,8.1a2.82,2.82,0,1,1,2.07-3.41A2.82,2.82,0,0,1,95.3,8.1Z"/><path class="cls-3" d="M74.25,221.39V123l-9-20.41h112a10.19,10.19,0,0,1,9.9,10.46V215.71"/><path class="cls-3" d="M74.25,138.88c40.27,11.88,75.88-12.85,112.93,0"/><line class="cls-3" x1="74.25" y1="157.3" x2="102.17" y2="157.3"/><line class="cls-3" x1="74.25" y1="175.59" x2="102.17" y2="175.59"/><line class="cls-3" x1="74.25" y1="193.88" x2="102.17" y2="193.88"/><line class="cls-3" x1="74.25" y1="212.17" x2="102.17" y2="212.17"/><circle class="cls-3" cx="80.54" cy="41.31" r="8.92"/><circle class="cls-3" cx="97.64" cy="71.07" r="13.83"/><circle class="cls-3" cx="65.72" cy="64.76" r="6.52"/></g></g></svg>