<svg xmlns="http://www.w3.org/2000/svg" viewBox="0 0 252.46 252.46"><defs><style>.cls-1,.cls-3,.cls-4{fill:none;stroke:#54545a;stroke-width:2.5px;}.cls-1,.cls-3{stroke-linecap:round;}.cls-1{stroke-miterlimit:10;}.cls-2{fill:#54545a;}.cls-3,.cls-4{stroke-linejoin:round;}</style></defs><g id="Layer_2" data-name="Layer 2"><g id="Layer_1-2" data-name="Layer 1"><path class="cls-1" d="M80.09,10A125,125,0,1,1,19.52,61.12"/><path class="cls-2" d="M81.25,12.69a2.82,2.82,0,1,1,1.64-3.63A2.81,2.81,0,0,1,81.25,12.69Z"/><line class="cls-3" x1="110.39" y1="62.64" x2="103.36" y2="150.83"/><polyline class="cls-3" points="66.67 62.66 66.96 52.79 110.1 52.79 110.39 62.64"/><line class="cls-3" x1="73.71" y1="150.83" x2="66.67" y2="62.66"/><rect class="cls-3" x="73.71" y="152.05" width="29.65" height="21.35"/><path class="cls-3" d="M73.71,166.93q14.82-9.63,29.65,0"/><line class="cls-3" x1="66.94" y1="61.56" x2="110.39" y2="61.56"/><line class="cls-3" x1="72.49" y1="130.17" x2="104.56" y2="130.17"/><line class="cls-4" x1="72.49" y1="136.7" x2="104.56" y2="136.7"/><rect class="cls-4" x="120.12" y="95.01" width="31.06" height="78.39"/><rect class="cls-3" x="120.12" y="70.31" width="31.06" height="21.08"/><line class="cls-3" x1="121.13" y1="147.28" x2="151.18" y2="147.28"/><line class="cls-4" x1="121.13" y1="153.14" x2="151.18" y2="153.14"/><polyline class="cls-3" points="177.83 148.71 203.85 148.71 203.85 173.4 167.54 173.4 167.54 158.35"/><rect class="cls-3" x="157.28" y="136.26" width="38.2" height="6.64" transform="translate(-47.03 165.6) rotate(-45)"/><polyline class="cls-3" points="202.92 165.46 177.5 165.46 177.5 159.79 202.92 159.79"/><path class="cls-3" d="M182.28,143.86l2.88-.08a10.63,10.63,0,0,1,6.33-5.24,7.37,7.37,0,0,0,6.54,6c4.57.23,1.88,3.37,1.88,3.37"/><polyline class="cls-3" points="54.43 215.98 54.43 177.7 226.34 177.7"/></g></g></svg>