<?xml version="1.0" encoding="UTF-8"?>
<svg width="2081px" height="138px" viewBox="0 0 2081 138" version="1.1" xmlns="http://www.w3.org/2000/svg" xmlns:xlink="http://www.w3.org/1999/xlink">
    <title>the-skincare-source-logo</title>
    <g id="Page-1" stroke="none" stroke-width="1" fill="none" fill-rule="evenodd">
        <g id="the-skincare-source-logo" fill="#222222" fill-rule="nonzero">
            <path d="M109.88,2.8 L109.88,40.67 L107.08,40.67 C107.08,30.5966667 106.08,23.1033333 104.08,18.19 C102.361563,13.5352107 98.676663,9.87592614 94.01,8.19 C89.2833333,6.45 82.1333333,5.58 72.56,5.58 L63.05,5.58 L63.05,131.34 L81.34,131.34 L81.34,134.13 L29.48,134.13 L29.48,131.34 L47.76,131.34 L47.76,5.6 L37.31,5.6 C28.11,5.6 21.1766667,6.47 16.51,8.21 C11.8928028,9.91067009 8.26949757,13.574275 6.62,18.21 C4.69333333,23.13 3.73,30.6233333 3.73,40.69 L0.93,40.69 L0.93,2.8 L109.88,2.8 Z" id="Path"></path>
            <polygon id="Path" points="118.64 131.34 136.92 131.34 136.92 5.6 118.64 5.6 118.64 2.8 170.5 2.8 170.5 5.6 152.22 5.6 152.22 64.74 220.13 64.74 220.13 5.6 201.84 5.6 201.84 2.8 253.7 2.8 253.7 5.6 235.42 5.6 235.42 131.34 253.7 131.34 253.7 134.13 201.84 134.13 201.84 131.34 220.13 131.34 220.13 67.91 152.22 67.91 152.22 131.34 170.5 131.34 170.5 134.13 118.64 134.13"></polygon>
            <path d="M263,131.34 L283.15,131.34 L283.15,5.6 L263,5.6 L263,2.8 L360.38,2.8 L361.87,36.57 L359.26,36.57 C358.52,28.61 357.213333,22.5166667 355.34,18.29 C353.466667,14.0633333 350.046667,10.89 345.08,8.77 C340.113333,6.65666667 332.653333,5.6 322.7,5.6 L298.44,5.6 L298.44,65.86 L313.55,65.86 C319.27,65.86 323.56,64.9566667 326.42,63.15 C329.29998,61.3218362 331.368805,58.4584108 332.2,55.15 C333.2,51.61 333.7,46.61 333.7,40.15 L336.31,40.15 L336.31,93.51 L333.7,93.51 C333.7,86.5433333 333.233333,81.35 332.3,77.93 C331.59159,74.7970145 329.498251,72.1555071 326.61,70.75 C323.736667,69.3833333 319.32,68.6966667 313.36,68.69 L298.44,68.69 L298.44,131.38 L320.82,131.38 C332.64,131.38 341.503333,130.353333 347.41,128.3 C353.051988,126.471528 357.678544,122.377551 360.18,117 C362.8,111.526667 364.416667,103.193333 365.03,92 L367.83,92 L366,134.13 L263,134.13 L263,131.34 Z" id="Path"></path>
            <path d="M464,135.16 C459.802989,134.239282 455.660017,133.087529 451.59,131.71 C448.11,130.47 445.59,129.84 444.13,129.84 C442.13,129.84 440.8,130.25 440.13,131.06 C439.347848,132.239215 438.994791,133.651444 439.13,135.06 L436.71,135.06 L436.71,91.6 L439.13,91.6 C439.75,105.66 443.636667,116.17 450.79,123.13 C457.943333,130.09 467.303333,133.57 478.87,133.57 C489.69,133.57 497.71,130.866667 502.93,125.46 C508.110131,120.16116 510.936318,112.99836 510.77,105.59 C510.77,99.4966667 509.616667,94.5533333 507.31,90.76 C504.703003,86.6854332 501.067379,83.3705991 496.77,81.15 C492.05,78.5433333 485.46,75.9966667 477,73.51 C469.642373,71.437112 462.468092,68.7613895 455.55,65.51 C450.502399,63.0732621 446.227883,59.286767 443.2,54.57 C440.206667,49.9033333 438.713333,43.7166667 438.72,36.01 C438.607358,29.5724237 440.320107,23.2345609 443.66,17.73 C446.923865,12.412047 451.610517,8.11335111 457.19,5.32 C463.272782,2.3160381 469.987068,0.814068072 476.77,0.94 C481.829496,0.796828514 486.88279,1.3931172 491.77,2.71 C495.544378,3.88111667 499.197763,5.41145325 502.68,7.28 C504.015955,8.08631503 505.475435,8.6674043 507,9 C508.287389,9.03545373 509.52201,8.48795813 510.36,7.51 C511.314927,6.28276756 511.838623,4.7749454 511.85,3.22 L514.28,3.22 L514.28,42 L511.67,42 C510.923333,29.6866667 507.59,20.2033333 501.67,13.55 C495.75,6.89666667 487.573333,3.56333333 477.14,3.55 C468.8,3.55 462.083333,5.82 456.99,10.36 C451.896667,14.9 449.346667,21.0866667 449.34,28.92 C449.34,34.7733333 450.46,39.44 452.7,42.92 C455.283511,46.6906297 458.843917,49.6875926 463,51.59 C469.455716,54.5824329 476.14451,57.0439092 483,58.95 C490.355237,61.0799048 497.528151,63.7952457 504.45,67.07 C509.605838,69.5871044 513.953441,73.4982143 517,78.36 C520.046667,83.2066667 521.573333,89.61 521.58,97.57 C521.58,109.63 517.693333,119.113333 509.92,126.02 C502.146667,132.926667 491.293333,136.3763 477.36,136.37 C472.876693,136.432706 468.399089,136.027174 464,135.16 Z" id="Path"></path>
            <path d="M652.13,131.34 L652.13,134.13 L602.69,134.13 L602.69,131.34 L620.41,131.34 L571.91,66.79 L563.33,75.18 L563.33,131.34 L579.75,131.34 L579.75,134.13 L529.75,134.13 L529.75,131.34 L548,131.34 L548,5.6 L529.75,5.6 L529.75,2.8 L580.31,2.8 L580.31,5.6 L563.31,5.6 L563.31,70.89 L609.57,25.38 C613.93,21.02 617.133333,17.63 619.18,15.21 C621.226667,12.79 622.253333,10.83 622.26,9.33 C622.301474,8.14695382 621.643381,7.05013335 620.58,6.53 C619.46,5.91 617.533333,5.6 614.8,5.6 L604.74,5.6 L604.74,2.8 L649.33,2.8 L649.33,5.6 L644.85,5.6 C641.863734,5.50025807 638.878908,5.83714591 635.99,6.6 C633.592038,7.40809521 631.374178,8.67495872 629.46,10.33 C627.28,12.13 623.766667,15.4633333 618.92,20.33 L582.36,56.72 L636.83,127.42 C637.753218,128.769727 639.006241,129.860958 640.47,130.59 C642.116561,131.16471 643.857826,131.419281 645.6,131.34 L652.13,131.34 Z" id="Path"></path>
            <polygon id="Path" points="660.22 131.34 678.5 131.34 678.5 5.6 660.22 5.6 660.22 2.8 712.08 2.8 712.08 5.6 693.8 5.6 693.8 131.34 712.08 131.34 712.08 134.13 660.22 134.13"></polygon>
            <path d="M743.46,12.32 L743.08,12.32 L743.08,122.57 C743.08,126.3 743.71,128.69 744.95,129.75 C746.19,130.81 748.95,131.34 753.16,131.34 L763.05,131.34 L763.05,134.13 L721.26,134.13 L721.26,131.34 L729.26,131.34 C733.613333,131.34 736.41,130.81 737.65,129.75 C738.89,128.69 739.513333,126.296667 739.52,122.57 L739.52,5.6 L721.26,5.6 L721.26,2.8 L755.58,2.8 L824.42,106.15 L824.79,106.15 L824.79,14.15 C824.79,10.67 824.356667,8.37 823.49,7.25 C822.623333,6.13 820.82,5.57 818.08,5.57 L805,5.57 L805,2.8 L846.41,2.8 L846.41,5.6 L834.49,5.6 C831.883333,5.6 830.216667,6.19 829.49,7.37 C828.763333,8.55 828.39,10.8833333 828.37,14.37 L828.37,135.25 L825.57,135.25 L743.46,12.32 Z" id="Path"></path>
            <path d="M879.49,128.35 C870.723333,123.25 863.603333,115.6 858.13,105.4 C852.656667,95.2 849.92,82.89 849.92,68.47 C849.92,54.29 852.586667,42.07 857.92,31.81 C863.253333,21.55 870.31,13.81 879.09,8.59 C887.614274,3.4294832 897.395408,0.716922431 907.36,0.75 C912.433879,0.610475276 917.492272,1.37228135 922.3,3 C926.345284,4.52340628 930.2225,6.46033883 933.87,8.78 C935.133726,9.58768149 936.438843,10.3286942 937.78,11 C938.813764,11.5638078 939.963461,11.8820275 941.14,11.93 C944.373333,11.93 945.99,9.32 945.99,4.1 L948.79,4.1 L948.79,45 L946,45 C945.88,36.3333333 944.14,28.8733333 940.78,22.62 C937.69906,16.6676172 932.966562,11.7302642 927.15,8.4 C921.350045,5.14892927 914.798575,3.47658046 908.15,3.55 C900.023396,3.3945486 892.101054,6.10258779 885.77,11.2 C879.416667,16.3 874.533333,23.73 871.12,33.49 C867.706667,43.25 866,54.8466667 866,68.28 C866,80.9466667 867.803333,92.2033333 871.41,102.05 C875.016667,111.896667 880.04,119.546667 886.48,125 C892.564993,130.330918 900.390245,133.251159 908.48,133.21 C919.673333,133.21 928.673333,129.136667 935.48,120.99 C942.286667,112.843333 945.793333,101.616667 946,87.31 L948.8,87.31 L948.8,132.64 L946,132.64 C946,129.53 945.6,127.36 944.79,126.11 C943.882105,124.823029 942.359174,124.114866 940.79,124.25 C939.311149,124.36901 937.891546,124.883659 936.68,125.74 C935.07,126.74 934.13,127.3 933.89,127.42 C930.182826,129.881228 926.244129,131.974498 922.13,133.67 C917.464364,135.361002 912.520308,136.151644 907.56,136 C897.68556,136.021253 887.988239,133.378413 879.49,128.35 Z" id="Path"></path>
            <path d="M1082.82,131.34 L1082.82,134.13 L1033,134.13 L1033,131.34 L1053.52,131.34 L1037.29,82.65 L994.75,82.65 L982.63,117.53 C980.763333,122.863333 979.83,126.53 979.83,128.53 C979.780139,129.446097 980.301467,130.297732 981.14,130.67 C982.505518,131.197375 983.96911,131.422544 985.43,131.33 L998.49,131.33 L998.49,134.12 L961,134.12 L961,131.33 L967.71,131.33 C970.2,131.33 972,130.95 973.12,130.21 C974.24,129.47 975.24,127.78 976.12,125.21 L1019.21,2.09 L1025.21,2.09 L1070,131.34 L1082.82,131.34 Z M1036.38,79.47 L1016.79,20.71 L1016.41,20.71 L995.89,79.47 L1036.38,79.47 Z" id="Shape"></path>
            <path d="M1181.21,131.8 C1177.89772,129.561608 1175.43272,126.276116 1174.21,122.47 C1172.67492,117.337754 1171.70582,112.052993 1171.32,106.71 L1170.39,96.45 C1169.51667,86.8766667 1166.81,79.7266667 1162.27,75 C1157.73,70.2733333 1149.99,67.91 1139.05,67.91 L1126.92,67.91 L1126.92,131.34 L1145.92,131.34 L1145.92,134.13 L1091.08,134.13 L1091.08,131.34 L1111.6,131.34 L1111.6,5.6 L1091.08,5.6 L1091.08,2.8 L1146.48,2.8 C1160.53333,2.8 1171.2,5.56666667 1178.48,11.1 C1185.76,16.6333333 1189.4,24.19 1189.4,33.77 C1189.4,53.17 1176.65333,63.99 1151.16,66.23 L1151.16,66.6 C1162.84,67.6 1171.48,70.7733333 1177.08,76.12 C1182.68,81.4666667 1186.04,89.7366667 1187.16,100.93 L1188.09,110.26 C1188.4394,114.881186 1189.31507,119.447398 1190.7,123.87 C1191.82,126.976667 1193.28333,129.093333 1195.09,130.22 C1197.28029,131.437445 1199.76694,132.019282 1202.27,131.9 C1204.75393,131.921831 1207.21992,131.477479 1209.54,130.59 L1210.1,132.83 C1205.51254,134.549059 1200.63749,135.37062 1195.74,135.25 C1189.41333,135.25 1184.57,134.1 1181.21,131.8 Z M1136.21,65.3 C1160.71,65.3 1172.96,55.4733333 1172.96,35.82 C1172.96,24.7533333 1170.1,16.95 1164.38,12.41 C1158.66,7.87 1149.14667,5.6 1135.84,5.6 L1126.84,5.6 L1126.84,65.3 L1136.21,65.3 Z" id="Shape"></path>
            <path d="M1218.13,131.34 L1238.27,131.34 L1238.27,5.6 L1218.13,5.6 L1218.13,2.8 L1315.5,2.8 L1317,36.57 L1314.39,36.57 C1313.64333,28.61 1312.33667,22.5166667 1310.47,18.29 C1308.60333,14.0633333 1305.18333,10.89 1300.21,8.77 C1295.23,6.65666667 1287.76667,5.6 1277.82,5.6 L1253.57,5.6 L1253.57,65.86 L1268.68,65.86 C1274.4,65.86 1278.69,64.9566667 1281.55,63.15 C1284.42949,61.3191879 1286.50071,58.4574077 1287.34,55.15 C1288.32667,51.61 1288.82333,46.61 1288.83,40.15 L1291.44,40.15 L1291.44,93.51 L1288.83,93.51 C1288.83,86.5433333 1288.36333,81.35 1287.43,77.93 C1286.72565,74.7950729 1284.63107,72.1519965 1281.74,70.75 C1278.88,69.3833333 1274.46333,68.6966667 1268.49,68.69 L1253.57,68.69 L1253.57,131.38 L1276,131.38 C1287.80667,131.38 1296.66667,130.353333 1302.58,128.3 C1308.20947,126.462208 1312.82335,122.369837 1315.32,117 C1317.93333,111.526667 1319.55,103.193333 1320.17,92 L1322.97,92 L1321.1,134.16 L1218.1,134.16 L1218.13,131.34 Z" id="Path"></path>
            <path d="M1419.13,135.16 C1414.93299,134.239282 1410.79002,133.087529 1406.72,131.71 C1403.24,130.47 1400.72,129.84 1399.26,129.84 C1397.26,129.84 1395.93,130.25 1395.26,131.06 C1394.47785,132.239215 1394.12479,133.651444 1394.26,135.06 L1391.84,135.06 L1391.84,91.6 L1394.26,91.6 C1394.88,105.66 1398.76667,116.17 1405.92,123.13 C1413.07333,130.09 1422.43333,133.57 1434,133.57 C1444.82,133.57 1452.84,130.866667 1458.06,125.46 C1463.24401,120.163677 1466.07087,112.999173 1465.9,105.59 C1465.9,99.4966667 1464.75,94.5533333 1462.45,90.76 C1459.83757,86.6900143 1456.20332,83.376429 1451.91,81.15 C1447.18333,78.5433333 1440.59,75.9966667 1432.13,73.51 C1424.77237,71.437112 1417.59809,68.7613895 1410.68,65.51 C1405.65265,63.072771 1401.3936,59.2981003 1398.37,54.6 C1395.37667,49.9333333 1393.88333,43.7466667 1393.89,36.04 C1393.78227,29.6030329 1395.49466,23.2665086 1398.83,17.76 C1402.09635,12.4440964 1406.78234,8.14600349 1412.36,5.35 C1418.44632,2.34595344 1425.16386,0.844022774 1431.95,0.97 C1437.00953,0.825968802 1442.06295,1.42227218 1446.95,2.74 C1450.72762,3.91103848 1454.38433,5.44136556 1457.87,7.31 C1459.19741,8.10306937 1460.64704,8.67075466 1462.16,8.99 C1463.44392,9.02241483 1464.67424,8.47519877 1465.51,7.5 C1466.46456,6.27189802 1466.99133,4.76533485 1467.01,3.21 L1469.43,3.21 L1469.43,42 L1466.82,42 C1466.07333,29.6866667 1462.74,20.2033333 1456.82,13.55 C1450.9,6.89666667 1442.72333,3.56333333 1432.29,3.55 C1423.96333,3.55 1417.24667,5.82 1412.14,10.36 C1407.03333,14.9 1404.48333,21.0866667 1404.49,28.92 C1404.49,34.7733333 1405.61,39.44 1407.85,42.92 C1410.42122,46.6887429 1413.96733,49.6887647 1418.11,51.6 C1424.56572,54.5924329 1431.25451,57.0539092 1438.11,58.96 C1445.4664,61.0864302 1452.63958,63.8018751 1459.56,67.08 C1464.73151,69.593432 1469.09618,73.5043192 1472.16,78.37 C1475.2,83.2166667 1476.72333,89.62 1476.73,97.58 C1476.73,109.64 1472.84333,119.123333 1465.07,126.03 C1457.29667,132.936667 1446.44667,136.385993 1432.52,136.38 C1428.02634,136.441286 1423.53859,136.032395 1419.13,135.16 Z" id="Path"></path>
            <path d="M1519,127.79 C1510.23333,122.316667 1503.27,114.45 1498.11,104.19 C1492.95,93.93 1490.37,82.0233333 1490.37,68.47 C1490.37,54.91 1492.95,43 1498.11,32.74 C1503.27,22.48 1510.23333,14.5833333 1519,9.05 C1536.7522,-2.00778796 1559.2478,-2.00778796 1577,9.05 C1585.76667,14.59 1592.73,22.4866667 1597.89,32.74 C1603.05,42.9933333 1605.63,54.9033333 1605.63,68.47 C1605.63,82.0166667 1603.05,93.9233333 1597.89,104.19 C1592.73,114.456667 1585.76667,122.323333 1577,127.79 C1559.21376,138.728083 1536.78624,138.728083 1519,127.79 L1519,127.79 Z M1578.79,115.48 C1585.88333,103.66 1589.42667,87.9933333 1589.42001,68.48 C1589.42001,56.04 1587.86667,44.94 1584.76,35.18 C1581.65333,25.42 1576.98667,17.71 1570.76,12.05 C1564.54,6.39 1556.95333,3.56 1548,3.56 C1539.04667,3.56 1531.47,6.37333333 1525.27,12 C1519.05,17.66 1514.35667,25.4 1511.19,35.22 C1507.87749,45.9732079 1506.27132,57.1792647 1506.43,68.43 C1506.43,87.95 1510.00667,103.616667 1517.16,115.43 C1524.31333,127.243333 1534.59333,133.166667 1548,133.2 C1561.45333,133.2 1571.72333,127.293333 1578.81,115.48 L1578.79,115.48 Z" id="Shape"></path>
            <path d="M1647.42,133.2 C1640.32667,130.593333 1635.16667,126.49 1631.94,120.89 C1628.71333,115.29 1627.09667,107.766667 1627.09,98.32 L1627.09,5.6 L1608.8,5.6 L1608.8,2.8 L1660.67,2.8 L1660.67,5.6 L1642.38,5.6 L1642.38,98.69 C1642.38,110.876667 1644.93,119.736667 1650.03,125.27 C1655.13,130.803333 1663.9,133.57 1676.34,133.57 C1689.14,133.57 1698.9,130.803333 1705.62,125.27 C1712.34,119.736667 1715.7,110.876667 1715.7,98.69 L1715.7,18.29 C1715.7,13.29 1714.86,9.96 1713.18,8.21 C1711.5,6.46 1708.54,5.6 1704.32,5.6 L1693.87,5.6 L1693.87,2.8 L1736.78,2.8 L1736.78,5.6 L1729.13,5.6 C1725.13,5.6 1722.47,6.53 1721.13,8.4 C1719.79,10.27 1719.13,13.62 1719.13,18.47 L1719.13,99.62 C1719.13,112.06 1715.43,121.42 1708.03,127.7 C1700.63,133.98 1690.02667,137.12 1676.22,137.12 C1664.11333,137.12 1654.51333,135.813333 1647.42,133.2 Z" id="Path"></path>
            <path d="M1835.24,131.8 C1831.92772,129.561608 1829.46272,126.276116 1828.24,122.47 C1826.70012,117.338907 1825.73093,112.053615 1825.35,106.71 L1824.42,96.45 C1823.54,86.8766667 1820.83333,79.7266667 1816.3,75 C1811.76667,70.2733333 1804.02667,67.91 1793.08,67.91 L1781,67.91 L1781,131.34 L1800,131.34 L1800,134.13 L1745.15,134.13 L1745.15,131.34 L1765.67,131.34 L1765.67,5.6 L1745.15,5.6 L1745.15,2.8 L1800.56,2.8 C1814.60667,2.8 1825.27333,5.56666667 1832.56,11.1 C1839.84667,16.6333333 1843.48333,24.19 1843.47,33.77 C1843.47,53.17 1830.72333,63.99 1805.23,66.23 L1805.23,66.6 C1816.92333,67.6 1825.56667,70.7733333 1831.16,76.12 C1836.75333,81.4666667 1840.11333,89.7366667 1841.24,100.93 L1842.17,110.26 C1842.5194,114.881186 1843.39507,119.447398 1844.78,123.87 C1845.9,126.976667 1847.36,129.093333 1849.16,130.22 C1851.35398,131.437268 1853.84378,132.01903 1856.35,131.9 C1858.83385,131.920885 1861.29966,131.476565 1863.62,130.59 L1864.18,132.83 C1859.59228,134.548095 1854.71742,135.369625 1849.82,135.25 C1843.45333,135.25 1838.59333,134.1 1835.24,131.8 Z M1790.24,65.3 C1814.74,65.3 1826.99,55.4733333 1826.99,35.82 C1826.99,24.7533333 1824.13,16.95 1818.41,12.41 C1812.69,7.87 1803.18667,5.6 1789.9,5.6 L1780.9,5.6 L1780.9,65.3 L1790.24,65.3 Z" id="Shape"></path>
            <path d="M1892.82,128.35 C1884.05333,123.25 1876.93333,115.6 1871.46,105.4 C1865.98667,95.2 1863.25,82.89 1863.25,68.47 C1863.25,54.29 1865.91667,42.07 1871.25,31.81 C1876.58333,21.55 1883.64333,13.81 1892.43,8.59 C1900.95117,3.43077553 1910.72873,0.718244466 1920.69,0.75 C1925.76388,0.610475276 1930.82227,1.37228135 1935.63,3 C1939.67528,4.52340628 1943.5525,6.46033883 1947.2,8.78 C1948.46663,9.59463966 1949.7751,10.3423319 1951.12,11.02 C1952.15336,11.5848147 1953.30329,11.9031009 1954.48,11.95 C1957.71333,11.95 1959.33,9.34 1959.33,4.12 L1962.12,4.12 L1962.12,45 L1959.33,45 C1959.20333,36.3333333 1957.46,28.8733333 1954.1,22.62 C1951.01554,16.6837436 1946.28722,11.7610237 1940.48,8.44 C1934.68004,5.18892927 1928.12858,3.51658046 1921.48,3.59 C1913.35038,3.43475552 1905.42496,6.14263811 1899.09,11.24 C1892.75,16.34 1887.87,23.77 1884.45,33.53 C1881.03,43.29 1879.32,54.8866667 1879.32,68.32 C1879.32,80.9866667 1881.12333,92.2433333 1884.73,102.09 C1888.33667,111.936667 1893.36667,119.573333 1899.82,125 C1905.90306,130.334153 1913.72959,133.25487 1921.82,133.21 C1933.01333,133.21 1942.03,129.136667 1948.87,120.99 C1955.71,112.843333 1959.19333,101.62 1959.32,87.32 L1962.11,87.32 L1962.11,132.65 L1959.32,132.65 C1959.32,129.54 1958.91,127.37 1958.1,126.12 C1957.19346,124.831403 1955.66954,124.122779 1954.1,124.26 C1952.62397,124.377849 1951.2073,124.892691 1950,125.75 C1948.38,126.75 1947.45,127.31 1947.2,127.43 C1943.49626,129.891093 1939.5609,131.984373 1935.45,133.68 C1930.78957,135.363461 1925.85287,136.150618 1920.9,136 C1911.02289,136.018165 1901.32329,133.375102 1892.82,128.35 L1892.82,128.35 Z" id="Path"></path>
            <path d="M1975.35,131.34 L1995.5,131.34 L1995.5,5.6 L1975.35,5.6 L1975.35,2.8 L2072.73,2.8 L2074.22,36.57 L2071.61,36.57 C2070.86333,28.61 2069.55667,22.5166667 2067.69,18.29 C2065.82333,14.0633333 2062.40333,10.89 2057.43,8.77 C2052.46333,6.65666667 2045.00333,5.6 2035.05,5.6 L2010.79,5.6 L2010.79,65.86 L2025.9,65.86 C2031.62,65.86 2035.91333,64.9566667 2038.78,63.15 C2041.65714,61.3188184 2043.72505,58.4566589 2044.56,55.15 C2045.55333,51.61 2046.05,46.61 2046.05,40.15 L2048.66,40.15 L2048.66,93.51 L2046.05,93.51 C2046.05,86.5433333 2045.58333,81.35 2044.65,77.93 C2043.94565,74.7950729 2041.85107,72.1519965 2038.96,70.75 C2036.1,69.3833333 2031.68667,68.6966667 2025.72,68.69 L2010.79,68.69 L2010.79,131.38 L2033.18,131.38 C2044.98667,131.38 2053.84667,130.353333 2059.76,128.3 C2065.40637,126.475002 2070.03728,122.380376 2072.54,117 C2075.14667,111.526667 2076.76333,103.193333 2077.39,92 L2080.19,92 L2078.33,134.16 L1975.33,134.16 L1975.35,131.34 Z" id="Path"></path>
        </g>
    </g>
</svg>