<svg width="179px" height="11px" viewBox="0 0 179 11" version="1.1" xmlns="http://www.w3.org/2000/svg" xmlns:xlink="http://www.w3.org/1999/xlink">
    <!-- Generator: Sketch 49.3 (51167) - http://www.bohemiancoding.com/sketch -->
    <desc>Created with Sketch.</desc>
    <defs></defs>
    <g id="3/14--Email-Series" stroke="none" stroke-width="1" fill="none" fill-rule="evenodd">
        <g id="Sponsor-Notification--REQUESTED-(desktop)" transform="translate(-235.000000, -29.000000)" fill="#414141">
            <g id="HEADER">
                <g id="Group-7">
                    <g id="LOGO-Copy" transform="translate(235.000000, 29.000000)">
                        <path d="M176.562661,1.86759764 L169.675443,1.86759764 L169.675443,4.17297683 L176.232463,4.17297683 C177.236815,4.17297683 177.924728,4.34242923 178.297819,4.68877339 C178.673338,5.03429096 178.857052,5.70714097 178.857052,6.70153723 L178.857052,8.17535978 C178.857052,9.17140924 178.673338,9.84260605 178.300247,10.1856438 C177.924728,10.5336412 177.239243,10.7055734 176.23651,10.7055734 L169.757993,10.7055734 C168.755259,10.7055734 168.070584,10.5336412 167.697492,10.1856438 C167.32521,9.84260605 167.139879,9.17140924 167.139879,8.17535978 L167.139879,7.88357102 L169.289403,7.42811604 L169.289403,8.69280954 L176.705099,8.69280954 L176.705099,6.24608225 L170.163456,6.24608225 C169.162341,6.24608225 168.476048,6.07084367 168.112668,5.7253261 C167.744432,5.38228833 167.565575,4.70943832 167.565575,3.71338887 L167.565575,2.53300827 C167.565575,1.53613222 167.744432,0.864935408 168.112668,0.519417838 C168.476048,0.174726865 169.162341,0.00196808046 170.163456,0.00196808046 L176.115923,0.00196808046 C177.078191,0.00196808046 177.749108,0.166460895 178.135148,0.498752912 C178.522807,0.830218332 178.716232,1.44520654 178.716232,2.34537074 L178.716232,2.57433812 L176.562661,3.09178788 L176.562661,1.86759764 L176.562661,1.86759764 Z M152.793262,8.69280954 L155.939854,8.69280954 C157.551997,8.69280954 158.7085,8.4522698 159.414217,7.96705732 C160.186297,7.44299479 160.570719,6.53704441 160.570719,5.2492062 C160.570719,3.02152713 159.420691,1.90975409 157.119826,1.90975409 L152.793262,1.90975409 L152.793262,8.69280954 L152.793262,8.69280954 Z M150.352386,10.7055734 L150.352386,0.00196808046 L157.097166,0.00196808046 C159.03546,0.00196808046 160.518114,0.464035835 161.544318,1.38899794 C162.576186,2.31561324 163.092525,3.61750361 163.092525,5.29053605 C163.092525,6.35601966 162.853779,7.3264446 162.381143,8.19602471 C161.863995,9.10858786 161.146138,9.76573252 160.227572,10.1649789 C159.389128,10.5262018 158.13389,10.7055734 156.467523,10.7055734 L150.352386,10.7055734 L150.352386,10.7055734 Z M136.052709,10.7055734 L136.052709,0.00196808046 L138.487919,0.00196808046 L138.487919,8.69280954 L146.351973,8.69280954 L146.351973,10.7055734 L136.052709,10.7055734 L136.052709,10.7055734 Z M120.77134,10.7055734 L120.77134,0.00196808046 L131.4963,0.00196808046 L131.4963,1.82544119 L123.209787,1.82544119 L123.209787,4.21265349 L128.04298,4.21265349 L128.04298,6.03777979 L123.209787,6.03777979 L123.209787,8.69280954 L131.595845,8.69280954 L131.595845,10.7055734 L120.77134,10.7055734 L120.77134,10.7055734 Z M113.439812,0.00196808046 L115.878259,0.00196808046 L115.878259,10.7055734 L113.439812,10.7055734 L113.439812,0.00196808046 Z M99.1020968,10.7055734 L99.1020968,0.00196808046 L109.704851,0.00196808046 L109.704851,1.86759764 L101.539735,1.86759764 L101.539735,4.68877339 L105.946421,4.68877339 L105.946421,6.63954245 L101.539735,6.63954245 L101.539735,10.7055734 L99.1020968,10.7055734 L99.1020968,10.7055734 Z M90.3121938,0.154061939 L90.3121938,4.8284683 L94.7844343,4.8284683 L94.7844343,6.03364681 L90.3121938,6.03364681 L90.3121938,10.7055734 L89.117654,10.7055734 L89.117654,6.03364681 L84.6454136,6.03364681 L84.6454136,4.8284683 L89.117654,4.8284683 L89.117654,0.154061939 L90.3121938,0.154061939 L90.3121938,0.154061939 Z M67.3601961,10.7055734 L67.3601961,0.00196808046 L69.0257536,0.00196808046 L76.3985568,6.30807703 C76.9262262,6.7643586 77.3252154,7.15120603 77.5971432,7.46944589 C77.5291612,6.47504963 77.4959796,5.85840823 77.4959796,5.62365467 L77.4959796,0.00196808046 L79.6900158,0.00196808046 L79.6900158,10.7055734 L78.0236489,10.7055734 L70.3263129,4.08783733 C69.9993521,3.81092732 69.7088103,3.52161835 69.4522594,3.21660404 C69.519432,3.90763918 69.5526137,4.47468476 69.5526137,4.91691418 L69.5526137,10.7055734 L67.3601961,10.7055734 L67.3601961,10.7055734 Z M54.0276428,6.43123999 L58.6172331,6.43123999 L56.3633081,2.07672669 L54.0276428,6.43123999 L54.0276428,6.43123999 Z M49.3360797,10.7055734 L55.2666946,0.00196808046 L57.6225926,0.00196808046 L63.635757,10.7055734 L60.8930094,10.7055734 L59.6337249,8.36299731 L52.9909183,8.36299731 L51.7729085,10.7055734 L49.3360797,10.7055734 L49.3360797,10.7055734 Z M36.7003413,8.69280954 L39.8501712,8.69280954 C41.4598864,8.69280954 42.6180073,8.4522698 43.3212967,7.96705732 C44.0933773,7.44299479 44.4794176,6.53704441 44.4794176,5.2492062 C44.4794176,3.02152713 43.3285804,1.90975409 41.0277155,1.90975409 L36.7003413,1.90975409 L36.7003413,8.69280954 L36.7003413,8.69280954 Z M34.2635125,10.7055734 L34.2635125,0.00196808046 L41.0066735,0.00196808046 C42.9425401,0.00196808046 44.4260032,0.464035835 45.4546347,1.38899794 C46.4832662,2.31561324 46.9987959,3.61750361 46.9987959,5.29053605 C46.9987959,6.35601966 46.7624777,7.3264446 46.2882227,8.19602471 C45.7718837,9.10858786 45.0556454,9.76573252 44.1330334,10.1649789 C43.2945895,10.5262018 42.0425887,10.7055734 40.3770312,10.7055734 L34.2635125,10.7055734 L34.2635125,10.7055734 Z M18.8324215,8.69280954 L26.876951,8.69280954 L26.876951,1.90975409 L18.8324215,1.90975409 L18.8324215,8.69280954 Z M16.3947834,2.53300827 C16.3947834,1.53613222 16.5784965,0.864935408 16.9451134,0.519417838 C17.3101117,0.174726865 17.9931683,0.00196808046 18.9950926,0.00196808046 L26.7134707,0.00196808046 C27.7145857,0.00196808046 28.3992609,0.174726865 28.7650685,0.519417838 C29.1308761,0.864935408 29.3137799,1.53613222 29.3137799,2.53300827 L29.3137799,8.17535978 C29.3137799,9.17140924 29.1308761,9.84260605 28.7650685,10.1856438 C28.3992609,10.5336412 27.7145857,10.7055734 26.7134707,10.7055734 L18.9950926,10.7055734 C17.9931683,10.7055734 17.3101117,10.5336412 16.9451134,10.1856438 C16.5784965,9.84260605 16.3947834,9.17140924 16.3947834,8.17535978 L16.3947834,2.53300827 L16.3947834,2.53300827 Z M8.30978843,1.82544119 L2.82591196,1.82544119 L2.82591196,4.83508107 L8.30978843,4.83508107 C8.68773564,4.83508107 8.95237962,4.79292462 9.10291106,4.70778513 C9.30523826,4.58296897 9.40640186,4.33912284 9.40640186,3.97707333 L9.40640186,2.68262234 C9.40640186,2.32057283 9.30523826,2.07837989 9.10291106,1.95025734 C8.95237962,1.86759764 8.68773564,1.82544119 8.30978843,1.82544119 L8.30978843,1.82544119 Z M0.428739283,10.7055734 L0.428739283,0.00196808046 L9.40640186,0.00196808046 C10.9764609,0.00196808046 11.7631091,0.69300322 11.7631091,2.07672669 L11.7631091,4.58462217 C11.7631091,5.96999883 10.9764609,6.66020738 9.40640186,6.66020738 L8.02491173,6.66020738 L12.8605318,10.7055734 L9.36674573,10.7055734 L5.14134446,6.66020738 L2.82591196,6.66020738 L2.82591196,10.7055734 L0.428739283,10.7055734 L0.428739283,10.7055734 Z" id="Fill-1"></path>
                    </g>
                </g>
            </g>
        </g>
    </g>
</svg>

